<svg xmlns="http://www.w3.org/2000/svg" viewBox="0 0 132 132" role="img" aria-label="SGAS"><defs><linearGradient id="sgasBlue" x1="0" y1="0" x2="0" y2="1"><stop offset="0" stop-color="#7fd0f5"/><stop offset="0.5" stop-color="#2ba8e0"/><stop offset="1" stop-color="#0f6cb2"/></linearGradient></defs><g transform="translate(29,0)" fill="url(#sgasBlue)"><path d="M 22 65.467 L 22 130.934 10.750 131.253 L -0.500 131.572 11.250 131.786 L 23 132 23 66 C 23 29.700, 22.775 0, 22.500 0 C 22.225 0, 22 29.460, 22 65.467 M 33 16.606 C 33 16.939, 34.288 18.852, 35.863 20.856 C 40.429 26.668, 42.350 31.164, 42.368 36.079 C 42.387 41.370, 41.011 45.265, 36.342 53.131 L 33 58.762 33 85.881 L 33 113 37.833 113 C 40.492 113, 42.913 112.754, 43.214 112.453 C 43.515 112.152, 42.915 109.187, 41.880 105.864 C 40.846 102.541, 40 99.412, 40 98.911 C 40 98.410, 43.825 98, 48.500 98 C 58.185 98, 58.004 97.768, 55.038 106.389 C 52.696 113.196, 52.719 113.214, 63.042 112.797 C 70.271 112.505, 70.431 112.441, 72.448 109 C 74.363 105.733, 74.500 103.899, 74.500 81.500 L 74.500 57.500 70.819 51 C 64.082 39.106, 51.945 26.881, 39.235 19.187 C 33.810 15.903, 33 15.568, 33 16.606 M 48.810 67.755 C 43.376 76.274, 40 82.302, 40 83.485 C 40 83.807, 44.612 83.942, 50.250 83.785 L 60.500 83.500 60.240 78.500 C 60 73.882, 57.027 63.166, 55.179 60.255 C 54.653 59.427, 52.525 61.932, 48.810 67.755 M 1.222 80.500 C 1.238 98.107, 1.268 98.358, 2.573 92 C 4.274 83.708, 4.270 76.083, 2.559 68.500 C 1.250 62.698, 1.205 63.094, 1.222 80.500" stroke="none"  fill-rule="evenodd"/></g></svg>