<svg xmlns="http://www.w3.org/2000/svg" width="300" height="150" viewBox="0 0 300 150" version="1.1"><defs><linearGradient id="sgasBlue" x1="0" y1="0" x2="0" y2="1"><stop offset="0" stop-color="#7fd0f5"/><stop offset="0.5" stop-color="#2ba8e0"/><stop offset="1" stop-color="#0f6cb2"/></linearGradient></defs>
	<path d="M 198.828 13.750 C 209.496 26.587, 209.153 33.641, 196.945 52.500 C 186.644 68.412, 185.496 71.677, 185.524 85 C 185.545 95.196, 185.829 97.067, 188.024 101.500 L 190.500 106.500 197.906 106.797 C 208.260 107.212, 208.187 107.274, 205.915 99.975 C 204.862 96.591, 204 93.412, 204 92.911 C 204 92.410, 207.825 92, 212.500 92 C 222.185 92, 222.004 91.768, 219.038 100.389 C 216.695 107.199, 216.713 107.213, 227.094 106.797 L 234.500 106.500 237.252 101 C 240.266 94.975, 243 82.591, 243 74.961 C 243 51.774, 227.226 27.594, 202.369 12.679 C 194.446 7.924, 194.079 8.035, 198.828 13.750 M 61 40.692 C 48.442 42.799, 38.952 51.761, 39.022 61.446 C 39.081 69.618, 46.646 78.152, 57.317 82.085 C 65.710 85.179, 68 86.786, 68 89.580 C 68 95.102, 55.916 95.589, 43.851 90.552 C 42.480 89.980, 41.902 91.139, 40.415 97.446 C 38.338 106.259, 38.465 106.507, 46.101 108.539 C 53.511 110.511, 65.109 110.381, 71.901 108.250 C 84.799 104.202, 91.242 91.620, 86.110 80.500 C 83.562 74.979, 80.736 72.658, 71.479 68.483 C 58.567 62.659, 58.874 62.869, 59.202 60.087 C 59.740 55.527, 65.406 55.076, 79.010 58.508 C 81.406 59.113, 81.605 58.815, 83.366 51.977 C 84.488 47.621, 84.852 44.452, 84.293 43.893 C 82.021 41.621, 67.419 39.615, 61 40.692 M 130.500 42.386 C 115.525 46.028, 106.357 55.749, 104.003 70.479 C 101.055 88.935, 110.083 103.594, 127.455 108.559 C 134.396 110.543, 152.355 110.116, 160 107.785 L 164.500 106.414 164.772 87.707 L 165.044 69 151.522 69 L 138 69 138 76.500 L 138 84 142.500 84 L 147 84 147 88.883 C 147 93.311, 146.764 93.812, 144.475 94.250 C 140.839 94.945, 133.340 93.344, 130.539 91.275 C 122.306 85.195, 121.256 68.508, 128.684 61.786 C 133.871 57.092, 145.104 55.622, 154.403 58.421 C 157.914 59.477, 159.206 59.541, 159.447 58.671 C 162.607 47.222, 163.028 44.635, 161.850 43.907 C 157.461 41.195, 139.069 40.302, 130.500 42.386 M 280.500 41.692 C 272.831 43.455, 270.416 44.532, 266.790 47.804 C 261.889 52.227, 260 56.333, 260 62.567 C 260 72.105, 264.859 77.278, 279.908 83.759 C 288.954 87.654, 290.810 90.116, 287.016 93.188 C 283.515 96.023, 277.055 95.545, 264.396 91.513 C 262.496 90.908, 262.178 91.409, 261.131 96.671 C 260.493 99.877, 259.713 103.463, 259.398 104.640 C 258.489 108.030, 266.868 110.460, 279.500 110.470 C 291.211 110.479, 298.570 108.261, 300.089 104.265 C 301.049 101.740, 301.394 71.273, 300.452 72.215 C 299.553 73.114, 280.647 64.392, 279.530 62.562 C 277.576 59.361, 282.469 56.685, 288.988 57.390 C 292.020 57.718, 295.850 58.102, 297.500 58.243 L 300.500 58.500 300.693 49.500 C 300.800 44.550, 300.671 40.999, 300.407 41.609 C 300.082 42.360, 298.566 42.455, 295.714 41.903 C 291.230 41.035, 283.805 40.932, 280.500 41.692 M 1.100 50.782 L 1.200 59.500 3.009 53.916 C 5.798 45.306, 5.830 43.870, 3.250 42.906 C 1.020 42.072, 1.001 42.142, 1.100 50.782 M 212.810 61.755 C 207.376 70.274, 204 76.302, 204 77.485 C 204 77.807, 208.613 77.942, 214.250 77.785 L 224.500 77.500 224.240 72.500 C 224 67.882, 221.027 57.166, 219.179 54.255 C 218.653 53.427, 216.525 55.932, 212.810 61.755 M 1 88.539 C 1 102.120, 1.127 103.140, 2.658 101.872 C 7.947 97.496, 9.465 86.085, 5.706 78.976 C 1.593 71.200, 1 72.406, 1 88.539 M 47.910 122.608 C 46.782 123.968, 46.840 124.410, 48.288 125.468 C 50.399 127.012, 50.482 128, 48.500 128 C 47.675 128, 47 128.450, 47 129 C 47 130.124, 49.040 130.306, 51.418 129.393 C 53.514 128.589, 53.429 126.371, 51.250 124.992 C 49.997 124.198, 49.855 123.735, 50.750 123.359 C 51.438 123.070, 52 122.421, 52 121.917 C 52 120.424, 49.352 120.872, 47.910 122.608 M 81 122 C 81 122.550, 81.450 123, 82 123 C 82.550 123, 83 122.550, 83 122 C 83 121.450, 82.550 121, 82 121 C 81.450 121, 81 121.450, 81 122 M 95 125.500 C 95 127.975, 95.450 130, 96 130 C 96.550 130, 97 127.975, 97 125.500 C 97 123.025, 96.550 121, 96 121 C 95.450 121, 95 123.025, 95 125.500 M 100 122 C 100 122.550, 100.450 123, 101 123 C 101.550 123, 102 122.550, 102 122 C 102 121.450, 101.550 121, 101 121 C 100.450 121, 100 121.450, 100 122 M 125 123 C 123.900 124.100, 123 125.418, 123 125.929 C 123 127.738, 126.279 130.102, 128.375 129.803 C 131.031 129.424, 132.033 125, 129.463 125 C 128.344 125, 127.988 125.527, 128.394 126.584 C 128.779 127.589, 128.545 128.015, 127.751 127.751 C 125.551 127.018, 125.666 123.900, 127.913 123.312 C 129.061 123.012, 130 122.369, 130 121.883 C 130 120.295, 127.045 120.955, 125 123 M 155.527 124.281 C 153.747 128.541, 153.613 130, 155 130 C 155.550 130, 156 129.550, 156 129 C 156 128.450, 156.675 128, 157.500 128 C 158.325 128, 159 128.450, 159 129 C 159 129.550, 159.486 130, 160.079 130 C 161.508 130, 160.254 123.976, 158.427 122.063 C 157.246 120.827, 156.841 121.137, 155.527 124.281 M 242.922 122.594 C 241.792 123.955, 241.957 124.464, 244.049 126.072 L 246.500 127.956 244.191 127.978 C 242.910 127.990, 242.157 128.445, 242.500 129 C 243.485 130.594, 247.002 130.157, 247.694 128.355 C 248.081 127.346, 247.586 126.143, 246.412 125.241 C 245.076 124.213, 244.876 123.629, 245.750 123.302 C 246.438 123.044, 247 122.421, 247 121.917 C 247 120.429, 244.354 120.869, 242.922 122.594 M 275 122 C 275 122.550, 275.477 123, 276.059 123 C 276.641 123, 276.840 122.550, 276.500 122 C 276.160 121.450, 275.684 121, 275.441 121 C 275.198 121, 275 121.450, 275 122 M 112.775 123.250 C 112.136 125.066, 113.370 129.290, 114.665 129.722 C 115.368 129.956, 115.656 128.885, 115.451 126.796 C 115.273 124.983, 115.099 123.162, 115.064 122.750 C 114.960 121.525, 113.250 121.898, 112.775 123.250 M 231.563 122.897 C 230.634 124.402, 232.167 130, 233.509 130 C 234.328 130, 234.656 128.865, 234.448 126.750 C 234.272 124.963, 234.099 123.162, 234.064 122.750 C 233.975 121.707, 232.236 121.810, 231.563 122.897 M 56 127.934 C 56 130.170, 56.450 132, 57 132 C 57.550 132, 58 131.602, 58 131.117 C 58 130.631, 58.936 129.989, 60.079 129.690 C 63.321 128.842, 62.295 124.591, 58.750 124.184 C 56.149 123.884, 56 124.087, 56 127.934 M 65.362 125.500 C 64.485 127.783, 65.712 130, 67.852 130 C 69.787 130, 71.027 127.548, 70.254 125.250 C 69.666 123.501, 66.058 123.686, 65.362 125.500 M 73.357 125.513 C 72.675 127.290, 74.647 130, 76.622 130 C 78.581 130, 78.330 128.342, 76.250 127.536 C 74.619 126.903, 74.632 126.760, 76.441 125.429 C 78.332 124.037, 78.325 124, 76.160 124 C 74.937 124, 73.676 124.681, 73.357 125.513 M 81 127 C 81 128.650, 81.450 130, 82 130 C 82.550 130, 83 128.650, 83 127 C 83 125.350, 82.550 124, 82 124 C 81.450 124, 81 125.350, 81 127 M 88 125 C 89.269 125.820, 89.220 125.972, 87.677 125.985 C 85.026 126.007, 85.991 129.425, 88.760 129.820 C 90.663 130.091, 91 129.677, 91 127.070 C 91 124.548, 90.598 124.003, 88.750 124.015 C 86.931 124.028, 86.787 124.216, 88 125 M 100 127 C 100 128.650, 100.450 130, 101 130 C 101.550 130, 102 128.650, 102 127 C 102 125.350, 101.550 124, 101 124 C 100.450 124, 100 125.350, 100 127 M 105.675 124.658 C 105.313 125.020, 105.519 125.920, 106.131 126.658 C 106.950 127.645, 106.948 128, 106.122 128 C 105.505 128, 105 128.450, 105 129 C 105 130.325, 108.703 130.289, 109.527 128.956 C 109.882 128.382, 109.687 127.328, 109.095 126.614 C 108.502 125.900, 108.313 125.020, 108.675 124.658 C 109.037 124.296, 108.658 124, 107.833 124 C 107.008 124, 106.037 124.296, 105.675 124.658 M 135 125 C 136 125.646, 136.083 125.974, 135.250 125.985 C 134.563 125.993, 134 126.900, 134 128 C 134 129.467, 134.667 130, 136.500 130 C 138.611 130, 139 129.533, 139 127 C 139 124.390, 138.642 124.002, 136.250 124.015 C 134.107 124.027, 133.831 124.245, 135 125 M 142.675 124.658 C 142.313 125.020, 142.519 125.920, 143.131 126.658 C 143.950 127.645, 143.948 128, 143.122 128 C 142.505 128, 142 128.450, 142 129 C 142 130.325, 145.703 130.289, 146.527 128.956 C 146.882 128.382, 146.687 127.328, 146.095 126.614 C 145.502 125.900, 145.313 125.020, 145.675 124.658 C 146.037 124.296, 145.658 124, 144.833 124 C 144.008 124, 143.037 124.296, 142.675 124.658 M 164 125.417 C 164 126.196, 164.563 127.060, 165.250 127.338 C 166.250 127.741, 166.250 127.858, 165.250 127.921 C 163.146 128.054, 163.863 130, 166.016 130 C 167.640 130, 167.987 129.417, 167.803 127 C 167.568 123.917, 164 122.431, 164 125.417 M 171.675 124.658 C 171.313 125.020, 171.519 125.920, 172.131 126.658 C 172.950 127.645, 172.948 128, 172.122 128 C 171.505 128, 171 128.450, 171 129 C 171 130.325, 174.703 130.289, 175.527 128.956 C 175.882 128.382, 175.687 127.328, 175.095 126.614 C 174.502 125.900, 174.313 125.020, 174.675 124.658 C 175.037 124.296, 174.658 124, 173.833 124 C 173.008 124, 172.037 124.296, 171.675 124.658 M 178.590 125.627 C 177.800 127.685, 179.670 130, 182.122 130 C 183.542 130, 184 129.268, 184 127 C 184 124.502, 183.599 124, 181.607 124 C 180.291 124, 178.933 124.732, 178.590 125.627 M 187.219 127 C 187.320 130.533, 191 131.506, 191 128 C 191 126.900, 190.438 125.993, 189.750 125.985 C 188.917 125.974, 189 125.646, 190 125 C 191.220 124.211, 191.093 124.028, 189.317 124.015 C 187.536 124.003, 187.149 124.552, 187.219 127 M 194.431 125.112 C 194.053 125.723, 194.364 126.616, 195.122 127.096 C 196.120 127.729, 196.155 127.974, 195.250 127.985 C 194.563 127.993, 194 128.450, 194 129 C 194 130.325, 197.703 130.289, 198.527 128.956 C 198.882 128.382, 198.687 127.328, 198.095 126.614 C 197.502 125.900, 197.313 125.020, 197.675 124.658 C 198.037 124.296, 197.610 124, 196.726 124 C 195.841 124, 194.809 124.500, 194.431 125.112 M 202 126.943 C 202 130.485, 203.655 131.068, 204.294 127.750 L 204.728 125.500 204.864 127.750 C 205.032 130.532, 207 130.762, 207 128 C 207 126.900, 207.450 126, 208 126 C 208.550 126, 209 126.900, 209 128 C 209 129.100, 209.480 130, 210.066 130 C 210.653 130, 210.990 128.762, 210.816 127.250 C 210.533 124.789, 210.053 124.468, 206.250 124.193 C 202.110 123.893, 202 123.964, 202 126.943 M 214.362 125.500 C 213.485 127.783, 214.712 130, 216.852 130 C 218.787 130, 220.027 127.548, 219.254 125.250 C 218.666 123.501, 215.058 123.686, 214.362 125.500 M 222 126.441 C 222 129.790, 223.814 130.636, 224.945 127.814 L 225.873 125.500 225.937 127.750 C 226.033 131.159, 228 130.444, 228 127 C 228 124.333, 227.667 124, 225 124 C 222.486 124, 222 124.395, 222 126.441 M 251.362 125.500 C 250.469 127.827, 251.727 130, 253.969 130 C 255.559 130, 256 129.349, 256 127 C 256 124.651, 255.559 124, 253.969 124 C 252.851 124, 251.678 124.675, 251.362 125.500 M 259 126.441 C 259 129.940, 260.828 130.582, 262.002 127.495 C 263.321 124.025, 263.314 124, 261 124 C 259.546 124, 259 124.667, 259 126.441 M 266 124.435 C 266 125.925, 268.107 130, 268.877 130 C 269.387 130, 270.275 128.650, 270.850 127 C 271.938 123.878, 271.261 123.139, 269.200 125.200 C 268.267 126.133, 268 126.133, 268 125.200 C 268 124.540, 267.550 124, 267 124 C 266.450 124, 266 124.196, 266 124.435 M 275 127 C 275 128.650, 275.450 130, 276 130 C 276.550 130, 277 128.650, 277 127 C 277 125.350, 276.550 124, 276 124 C 275.450 124, 275 125.350, 275 127 M 280.362 125.500 C 279.547 127.622, 280.661 130, 282.469 130 C 284.310 130, 284.504 128.377, 282.750 127.646 C 281.863 127.277, 282.064 126.671, 283.441 125.563 C 285.342 124.032, 285.336 124, 283.160 124 C 281.937 124, 280.678 124.675, 280.362 125.500 M 287.709 124.624 C 286.273 126.060, 287.061 128.884, 289.075 129.524 C 291.579 130.319, 291.879 130.073, 292.228 126.941 C 292.500 124.511, 289.408 122.926, 287.709 124.624 M 296.219 127 C 296.268 128.737, 296.847 130, 297.593 130 C 299.522 130, 300.324 128.095, 299.044 126.553 C 298.196 125.532, 298.237 125.066, 299.208 124.676 C 299.919 124.391, 299.518 124.122, 298.317 124.079 C 296.523 124.014, 296.149 124.534, 296.219 127 M 58 127 C 58 127.550, 58.450 128, 59 128 C 59.550 128, 60 127.550, 60 127 C 60 126.450, 59.550 126, 59 126 C 58.450 126, 58 126.450, 58 127 M 5.789 149.741 C 9.248 149.937, 14.648 149.936, 17.789 149.738 C 20.930 149.540, 18.100 149.380, 11.500 149.382 C 4.900 149.384, 2.330 149.546, 5.789 149.741" stroke="none" fill="url(#sgasBlue)" fill-rule="evenodd"/>
</svg>